<svg width="1094" height="1079" viewBox="0 0 1094 1079" fill="none" xmlns="http://www.w3.org/2000/svg">
<g opacity="0.8" filter="url(#filter0_f_77_2)">
<path d="M1009 597.5C1009 511.101 989.309 426.103 951.758 350.409C914.207 274.714 860.014 210.779 794.217 164.547C728.42 118.314 653.155 91.2845 575.416 85.9703C497.678 80.6562 419.99 97.2299 349.573 134.151C279.157 171.072 218.298 227.142 172.653 297.149C127.008 367.157 98.0585 448.829 88.4956 534.575C78.9327 620.321 89.0666 707.357 117.956 787.593C146.844 867.829 193.551 938.662 253.733 993.506L547 597.5H1009Z" fill="url(#paint0_radial_77_2)"/>
</g>
<defs>
<filter id="filter0_f_77_2" x="0.201927" y="0.201942" width="1093.6" height="1078.1" filterUnits="userSpaceOnUse" color-interpolation-filters="sRGB">
<feFlood flood-opacity="0" result="BackgroundImageFix"/>
<feBlend mode="normal" in="SourceGraphic" in2="BackgroundImageFix" result="shape"/>
<feGaussianBlur stdDeviation="42.399" result="effect1_foregroundBlur_77_2"/>
</filter>
<radialGradient id="paint0_radial_77_2" cx="0" cy="0" r="1" gradientUnits="userSpaceOnUse" gradientTransform="translate(547 347.351) rotate(90) scale(762.649 687.5)">
<stop offset="0.0520833" stop-color="#FB4590"/>
<stop offset="0.395833" stop-color="#6322FE" stop-opacity="0.25"/>
<stop offset="0.786458" stop-color="#5A0DFF" stop-opacity="0.44"/>
<stop offset="1" stop-color="#0D6EFF" stop-opacity="0.67"/>
<stop offset="1" stop-color="#0D25FF" stop-opacity="0.49"/>
</radialGradient>
</defs>
</svg>
