<svg width="3" height="2" viewBox="0 0 3 2" fill="none" xmlns="http://www.w3.org/2000/svg">
<path d="M1.70266 1.73159C1.92299 1.85019 1.99638 1.88524 2.01033 1.98963L0.0194983 1.99531C-0.0156402 1.84685 0.0408774 1.78438 0.204605 1.69011C0.388686 1.60397 0.444309 1.54654 0.414823 1.41944C0.353848 1.22595 0.338913 1.12544 0.537269 1.03941C0.675789 0.998809 0.756823 0.977591 0.730775 0.861469C0.672661 0.689638 0.673207 0.606985 0.749003 0.490402C0.778162 0.421767 0.845096 0.380434 0.916521 0.2786C0.987946 0.176766 0.872024 0.0565028 0.994058 0.000125898C0.955343 0.0333535 0.95264 0.0427756 0.973786 0.0777948C1.05996 0.150739 1.10062 0.192392 1.0678 0.277022C1.02601 0.383152 1.03155 0.430487 1.10888 0.486647L1.11158 0.488511C1.32914 0.638883 1.45195 0.723767 1.34947 0.923938C1.27589 1.02534 1.27699 1.06626 1.36288 1.1076C1.54 1.18473 1.62336 1.23649 1.6259 1.4068C1.59113 1.58947 1.58699 1.64726 1.70266 1.73159Z" fill="#D9D9D9"/>
</svg>
