<svg width="2" height="2" viewBox="0 0 2 2" fill="none" xmlns="http://www.w3.org/2000/svg">
<path d="M0.856547 0.871042C0.966714 0.930344 1.00341 0.947867 1.01038 1.00006L0.0149677 1.0029C-0.00260161 0.928675 0.0256572 0.897441 0.107521 0.850303C0.199562 0.807235 0.227373 0.778519 0.21263 0.714969C0.182142 0.618222 0.174675 0.567967 0.273853 0.524953C0.343113 0.504654 0.38363 0.494044 0.370606 0.435984C0.341549 0.350068 0.341822 0.308741 0.37972 0.25045C0.394299 0.216132 0.427766 0.195466 0.463479 0.144549C0.499191 0.0936322 0.441231 0.0335004 0.502248 0.00531197C0.48289 0.0219258 0.481539 0.0266368 0.492112 0.0441464C0.535198 0.0806187 0.555528 0.101445 0.539119 0.14376C0.518224 0.196825 0.520993 0.220493 0.55966 0.248573L0.561009 0.249505C0.66979 0.324691 0.731196 0.367132 0.679955 0.467218C0.643162 0.517917 0.643712 0.53838 0.686659 0.559047C0.77522 0.597614 0.816901 0.623492 0.818167 0.708651C0.800781 0.799985 0.798713 0.828877 0.856547 0.871042Z" fill="#D9D9D9"/>
</svg>
